<svg width="28" height="28" viewBox="0 0 28 28" fill="none" xmlns="http://www.w3.org/2000/svg">
<circle cx="14" cy="14" r="13.5" stroke="#E9841A"/>
<path d="M13.3486 17.9609V19H6.83398V18.0908L10.0947 14.4609C10.4958 14.0143 10.8057 13.6361 11.0244 13.3262C11.2477 13.0117 11.4027 12.7314 11.4893 12.4854C11.5804 12.2347 11.626 11.9795 11.626 11.7197C11.626 11.3916 11.5576 11.0954 11.4209 10.8311C11.2887 10.5622 11.0928 10.348 10.833 10.1885C10.5732 10.029 10.2588 9.94922 9.88965 9.94922C9.44759 9.94922 9.07845 10.0358 8.78223 10.209C8.49056 10.3776 8.27181 10.6146 8.12598 10.9199C7.98014 11.2253 7.90723 11.5762 7.90723 11.9727H6.64258C6.64258 11.4121 6.76562 10.8994 7.01172 10.4346C7.25781 9.96973 7.6224 9.60059 8.10547 9.32715C8.58854 9.04915 9.18327 8.91016 9.88965 8.91016C10.5186 8.91016 11.0563 9.02181 11.5029 9.24512C11.9495 9.46387 12.2913 9.77376 12.5283 10.1748C12.7699 10.5713 12.8906 11.0361 12.8906 11.5693C12.8906 11.861 12.8405 12.1572 12.7402 12.458C12.6445 12.7542 12.5101 13.0505 12.3369 13.3467C12.1683 13.6429 11.9701 13.9346 11.7422 14.2217C11.5189 14.5088 11.2796 14.7913 11.0244 15.0693L8.3584 17.9609H13.3486ZM21.4287 15.6504V16.6895H14.2373V15.9443L18.6943 9.04688H19.7266L18.6191 11.043L15.6729 15.6504H21.4287ZM20.041 9.04688V19H18.7764V9.04688H20.041Z" fill="#E9841A"/>
</svg>
