<svg width="61" height="60" viewBox="0 0 61 60" fill="none" xmlns="http://www.w3.org/2000/svg">
<path d="M60 30C60 46.2924 46.7924 59.5 30.5 59.5C14.2076 59.5 1 46.2924 1 30C1 13.7076 14.2076 0.5 30.5 0.5C46.7924 0.5 60 13.7076 60 30Z" stroke="#E9841A"/>
<path fill-rule="evenodd" clip-rule="evenodd" d="M27.3091 13.058C24.976 13.0916 24.6823 13.1088 24.513 13.2209C24.218 13.4161 24.1206 13.6229 24.003 14.3033C23.8051 15.4489 23.3764 16.2794 22.5972 17.0264C22.3261 17.2864 21.8986 17.6074 21.6472 17.7397C20.4659 18.362 20.3457 18.6638 20.6266 20.3045C21.5434 25.6574 24.213 30.0002 28.1919 32.6109C29.2023 33.2739 30.2814 33.8184 30.5848 33.8184C31.0069 33.8184 32.6923 32.8618 33.8565 31.9615C36.6749 29.7819 38.8054 26.4906 39.8624 22.6838C40.2978 21.1155 40.6015 19.1351 40.4809 18.65C40.4053 18.3461 40.0882 18.0357 39.5994 17.7872C38.0935 17.0219 37.2532 15.8759 36.951 14.1759C36.84 13.5511 36.6775 13.272 36.3277 13.1044C36.1153 13.0027 35.7236 12.9909 33.0014 13.0047C31.3044 13.0134 28.7428 13.0373 27.3091 13.058ZM35.8998 14.3208C36.2199 16.244 37.275 17.7479 38.9053 18.6046C39.4361 18.8836 39.4506 18.8983 39.4506 19.154C39.4506 19.575 39.1926 21.0518 38.9639 21.94C37.871 26.1852 35.6334 29.5057 32.3917 31.6933C32.0297 31.9376 31.4761 32.2726 31.1615 32.4379L30.5894 32.7382L30.147 32.5149C25.6322 30.2342 22.4572 25.5007 21.6235 19.8076C21.5691 19.4367 21.5378 19.0989 21.5537 19.057C21.5696 19.0151 21.7311 18.908 21.9127 18.819C23.607 17.9882 24.7538 16.3756 25.0607 14.3927L25.1018 14.1273L27.5088 14.1077C28.8327 14.0968 31.2523 14.0804 32.8857 14.0712L35.8555 14.0544L35.8998 14.3208ZM29.1184 15.0469L26.1396 15.0843L25.9427 15.3067C25.8344 15.4291 25.6902 15.7008 25.6221 15.9104C25.2168 17.159 24.2726 18.3997 23.1428 19.1682C22.9351 19.3094 22.727 19.5219 22.6606 19.6604C22.549 19.8933 22.5522 19.9454 22.7339 20.8323C22.9519 21.8968 23.0198 22.0706 23.2741 22.2145C23.4258 22.3003 23.495 22.303 23.6696 22.2301C24.0305 22.0791 24.0614 21.8933 23.8632 21.0674C23.7671 20.6674 23.6885 20.288 23.6885 20.2244C23.6885 20.1608 23.8599 19.9751 24.0697 19.8118C25.0943 19.014 26.0584 17.7464 26.4768 16.6472L26.679 16.1159L28.7962 16.115C29.9607 16.1146 31.6723 16.0932 32.5999 16.0676L34.2864 16.0212L34.4159 16.3695C34.9604 17.834 35.8656 18.9603 37.337 20.0039C37.3549 20.0166 37.2965 20.3867 37.2071 20.8264C37.0174 21.7602 37.0266 21.9092 37.2867 22.1045C37.44 22.2195 37.5188 22.2358 37.6666 22.1827C37.9795 22.0702 38.0982 21.8083 38.2952 20.7955C38.4749 19.8721 38.478 19.8197 38.3656 19.5807C38.2897 19.4194 38.0798 19.2148 37.7725 19.0029C37.2349 18.6321 36.4527 17.8605 36.1361 17.3887C35.8628 16.9811 35.4138 16.0873 35.2998 15.7235C35.0901 15.0541 34.8702 14.9733 33.3134 14.9937C32.6445 15.0024 30.7568 15.0263 29.1184 15.0469ZM33.5168 19.461C33.446 19.5025 32.6661 20.6408 31.7837 21.9905L30.1792 24.4444L29.2735 23.5736C28.7754 23.0946 28.2968 22.6754 28.2101 22.642C27.8954 22.5208 27.5586 22.7689 27.5586 23.122C27.5586 23.4035 27.6059 23.4579 29.0295 24.8104C29.8918 25.6297 30.0763 25.7734 30.2662 25.7734C30.4074 25.7734 30.5434 25.7146 30.636 25.6136C30.9708 25.2483 34.3138 20.0509 34.3138 19.8955C34.3138 19.8045 34.2361 19.6515 34.1411 19.5556C33.9583 19.371 33.7292 19.3363 33.5168 19.461ZM36.5422 23.5096C36.4712 23.5512 36.2471 23.9417 36.0441 24.3775C34.9036 26.8254 33.311 28.7174 31.2421 30.0824C30.9265 30.2906 30.6248 30.4609 30.5716 30.4609C30.422 30.4609 29.2026 29.6422 28.6141 29.1467C27.1509 27.9147 26.031 26.4565 25.1233 24.6015C24.8749 24.0936 24.6184 23.6382 24.5536 23.5894C24.2418 23.3548 23.7581 23.6279 23.7595 24.0378C23.7604 24.2978 24.512 25.8205 25.0568 26.666C26.2726 28.553 27.8727 30.1196 29.7187 31.2303C30.5289 31.7178 30.6573 31.7156 31.4708 31.2011C32.4198 30.6009 33.0784 30.0795 33.8786 29.2949C34.7341 28.4562 35.1853 27.912 35.8266 26.9453C36.3622 26.1378 37.3396 24.2009 37.3396 23.947C37.3396 23.8542 37.2619 23.6998 37.1669 23.6039C36.984 23.4193 36.755 23.3847 36.5422 23.5096ZM13.4174 29.8324C13.0497 29.9414 12.8095 30.1445 12.6468 30.4839C12.501 30.7878 12.5 30.8375 12.5 37.9007C12.5 42.7522 12.5238 45.0751 12.5749 45.2115C12.6666 45.4565 12.9627 45.7804 13.2177 45.9149C13.5014 46.0645 18.4686 46.0621 18.7557 45.9122C19.2081 45.6761 19.4279 45.2871 19.4832 44.6244L19.5015 44.4056L22.5273 45.5653C24.1915 46.2031 25.7544 46.789 26.0003 46.8672C26.7699 47.112 26.2575 47.1703 36.6008 45.6621C37.6844 45.504 38.7433 45.3244 38.9539 45.2629C39.4095 45.1297 40.1499 44.7604 40.5413 44.4711C40.8409 44.2496 47.8466 37.8965 48.0504 37.6615C48.5241 37.1151 48.6475 35.9831 48.305 35.3261C48.0699 34.8752 47.6822 34.4847 47.2684 34.2821C46.8718 34.088 46.1828 34.0323 45.7282 34.1577C45.4981 34.2212 44.2992 34.9903 41.808 36.6725L38.2192 39.0959L37.4804 39.0576L36.7416 39.0193L36.6903 38.5931C36.5192 37.1722 35.4822 36.0487 34.1011 35.7876C33.8892 35.7476 32.0533 35.5698 30.0214 35.3927L26.3272 35.0705L25.7423 34.8299C25.4207 34.6975 24.5577 34.2645 23.8246 33.8676C22.0165 32.8887 21.43 32.6729 20.1226 32.5051L19.477 32.4222L19.4541 31.5248C19.4328 30.6919 19.4177 30.607 19.2439 30.3422C18.8859 29.7969 18.8366 29.7879 16.0887 29.7731C14.6077 29.7651 13.566 29.7883 13.4174 29.8324ZM18.3264 30.9013C18.388 30.9635 18.4108 31.5207 18.4108 32.9642V34.9419L18.5836 35.1162C18.6786 35.2121 18.8383 35.2905 18.9386 35.2905C19.0389 35.2905 19.1986 35.2121 19.2936 35.1162C19.4541 34.9542 19.4664 34.8912 19.4664 34.2284C19.4664 33.3966 19.3937 33.4435 20.4051 33.6215C21.2134 33.7637 21.9954 34.0605 22.9032 34.5695C24.0065 35.1881 25.1344 35.7454 25.6939 35.9482C26.1332 36.1075 26.5969 36.1628 29.9863 36.4595C32.0762 36.6425 33.9496 36.8379 34.1495 36.8938C34.9144 37.1079 35.5575 37.8863 35.6341 38.6909L35.666 39.0266L30.7063 39.3344C27.9784 39.5036 25.6369 39.6214 25.5029 39.596C25.369 39.5706 25.1304 39.4385 24.9729 39.3023C24.4998 38.8936 23.9699 39.032 23.9699 39.5641C23.9699 39.8748 24.4553 40.3374 25.0012 40.5468C25.3828 40.6932 25.4882 40.7015 26.4679 40.6608C27.5386 40.6163 30.2801 40.4489 34.1731 40.1904C35.9077 40.0752 36.5192 40.0609 37.3613 40.1158C37.9344 40.153 38.4569 40.1638 38.5224 40.1396C38.5878 40.1154 40.2716 38.992 42.2641 37.6431C45.7938 35.2536 45.8966 35.19 46.275 35.1633C46.5947 35.1408 46.7057 35.1653 46.9031 35.302C47.4197 35.6598 47.6045 36.2313 47.367 36.7365C47.2829 36.9151 46.1877 37.9563 43.8262 40.1024C41.9456 41.8114 40.263 43.3309 40.0871 43.4789C39.6853 43.8172 39.0482 44.1351 38.5007 44.2706C38.2685 44.328 35.6244 44.7314 32.625 45.1672C28.5643 45.757 27.0638 45.9501 26.7494 45.923C26.3493 45.8886 25.5189 45.5854 20.2052 43.5336L19.5015 43.262L19.4664 40.0867L19.4312 36.9114L19.265 36.7757C19.0537 36.6031 18.8235 36.6031 18.6122 36.7757L18.446 36.9114L18.4108 40.9129L18.3757 44.9143H15.9832H13.5907L13.5727 37.9616C13.5597 32.8833 13.5762 30.983 13.6341 30.9125C13.7429 30.7803 18.1959 30.7695 18.3264 30.9013ZM15.2795 40.3479C15.0343 40.4344 14.6318 40.7163 14.448 40.9303C13.8237 41.6569 13.9371 42.9054 14.6863 43.5526C14.9898 43.8147 15.522 44.0265 15.8776 44.0265C16.5318 44.0265 17.2731 43.5372 17.5762 42.9054C18.03 41.959 17.5101 40.7113 16.5199 40.3707C16.1623 40.2478 15.5931 40.2373 15.2795 40.3479ZM16.2882 41.4281C16.81 41.7004 16.809 42.4957 16.2865 42.8172C16.0088 42.9881 15.8013 42.9984 15.5266 42.855C15.2337 42.7022 15.1036 42.4764 15.1036 42.1214C15.1036 41.8626 15.1436 41.7701 15.3428 41.569C15.6111 41.2983 15.9444 41.2486 16.2882 41.4281Z" fill="#E9841A"/>
</svg>
