<svg width="60" height="60" viewBox="0 0 60 60" fill="none" xmlns="http://www.w3.org/2000/svg">
<path d="M59.5 30C59.5 46.2924 46.2924 59.5 30 59.5C13.7076 59.5 0.5 46.2924 0.5 30C0.5 13.7076 13.7076 0.5 30 0.5C46.2924 0.5 59.5 13.7076 59.5 30Z" stroke="#E9841A"/>
<path d="M15.531 21.3001L40.2285 45.9976L54.558 31.6681L29.8605 6.97063L15.531 21.3001Z" stroke="#E9841A" stroke-miterlimit="10" stroke-linecap="round"/>
<path d="M11.9959 46.6925L14.9233 49.6199L27.4951 37.0482L24.5676 34.1207L11.9959 46.6925Z" fill="#E9841A" stroke="#E9841A" stroke-miterlimit="10" stroke-linecap="round"/>
<path d="M31.078 40.608L20.6653 30.1954C20.6394 30.1771 20.6176 30.1533 20.602 30.126C20.5863 30.0986 20.5772 30.0686 20.5754 30.0386C20.5737 30.0085 20.5793 29.9794 20.5919 29.9537C20.6045 29.928 20.6236 29.9065 20.6476 29.8912L22.4719 28.0669C22.8939 27.6449 23.4869 27.4287 24.1206 27.4656C24.7543 27.5026 25.3768 27.7898 25.851 28.264L33.0034 35.4164C33.4776 35.8906 33.7648 36.513 33.8017 37.1467C33.8387 37.7804 33.6224 38.3735 33.2005 38.7954L31.3761 40.6198C31.3438 40.6521 31.2983 40.6687 31.2497 40.6659C31.2011 40.663 31.1534 40.641 31.1171 40.6047L31.078 40.608Z" fill="#E9841A" stroke="#E9841A" stroke-miterlimit="10" stroke-linecap="round"/>
<path d="M35.46 34.0575L36.645 33.6825" stroke="#E9841A" stroke-miterlimit="10" stroke-linecap="round"/>
<path d="M38.0024 33.2475L40.0349 32.6025" stroke="#E9841A" stroke-miterlimit="10" stroke-linecap="round" stroke-dasharray="1.9 1.9"/>
<path d="M33.4125 31.815L34.4775 31.1775" stroke="#E9841A" stroke-miterlimit="10" stroke-linecap="round"/>
<path d="M35.6926 30.4425L37.5226 29.3325" stroke="#E9841A" stroke-miterlimit="10" stroke-linecap="round" stroke-dasharray="1.9 1.9"/>
<path d="M27.4651 26.0625L27.8401 24.8775" stroke="#E9841A" stroke-miterlimit="10" stroke-linecap="round"/>
<path d="M28.275 23.52L28.92 21.4875" stroke="#E9841A" stroke-miterlimit="10" stroke-linecap="round" stroke-dasharray="1.9 1.9"/>
<path d="M29.7076 28.11L30.3526 27.045" stroke="#E9841A" stroke-miterlimit="10" stroke-linecap="round"/>
<path d="M31.0875 25.83L32.19 24" stroke="#E9841A" stroke-miterlimit="10" stroke-linecap="round" stroke-dasharray="1.9 1.9"/>
<path d="M31.4399 30.0825L32.3174 29.205" stroke="#E9841A" stroke-miterlimit="10" stroke-linecap="round"/>
<path d="M33.33 28.2L34.8375 26.685" stroke="#E9841A" stroke-miterlimit="10" stroke-linecap="round" stroke-dasharray="1.9 1.9"/>
</svg>
