<svg width="28" height="28" viewBox="0 0 28 28" fill="none" xmlns="http://www.w3.org/2000/svg">
<path d="M21 8H7C6.73478 8 6.48043 8.10536 6.29289 8.29289C6.10536 8.48043 6 8.73478 6 9V19C6 19.2652 6.10536 19.5196 6.29289 19.7071C6.48043 19.8946 6.73478 20 7 20H21C21.2652 20 21.5196 19.8946 21.7071 19.7071C21.8946 19.5196 22 19.2652 22 19V9C22 8.73478 21.8946 8.48043 21.7071 8.29289C21.5196 8.10536 21.2652 8 21 8ZM20.23 19H7.83L11.33 15.38L10.61 14.685L7 18.42V9.76L13.215 15.945C13.4024 16.1313 13.6558 16.2358 13.92 16.2358C14.1842 16.2358 14.4376 16.1313 14.625 15.945L21 9.605V18.355L17.32 14.675L16.615 15.38L20.23 19ZM7.655 9H20.19L13.92 15.235L7.655 9Z" fill="#E9841A"/>
<circle cx="14" cy="14" r="13.5" stroke="#E9841A"/>
</svg>
