<svg width="60" height="61" viewBox="0 0 60 61" fill="none" xmlns="http://www.w3.org/2000/svg">
<path d="M59.5 30.2732C59.5 46.5656 46.2924 59.7732 30 59.7732C13.7076 59.7732 0.5 46.5656 0.5 30.2732C0.5 13.9808 13.7076 0.773193 30 0.773193C46.2924 0.773193 59.5 13.9808 59.5 30.2732Z" stroke="#E9841A"/>
<path fill-rule="evenodd" clip-rule="evenodd" d="M30.8018 15.3729C30.2929 15.5108 29.6442 15.8485 29.4572 16.073L29.3171 16.241V18.4001V20.5592L27.5659 24.3838C26.6027 26.4874 25.7872 28.2177 25.7537 28.229C25.7202 28.2403 25.6928 28.1951 25.6928 28.1285C25.6928 27.906 25.534 27.6197 25.3602 27.529C25.1081 27.3974 18.8883 27.396 18.336 27.5275C17.8083 27.6531 17.3338 27.9284 16.9134 28.3528C16.4931 28.7772 16.2204 29.2563 16.0961 29.7891C15.9681 30.3373 15.968 40.3799 16.0959 40.928C16.3261 41.9142 17.0665 42.7574 18.0215 43.1211C18.3489 43.2458 18.4302 43.2502 20.7337 43.2663C23.0213 43.2824 23.1231 43.2785 23.5087 43.1609C24.2898 42.9226 24.9885 42.3384 25.3388 41.6305L25.5068 41.2912L25.8839 41.4536C26.4517 41.6982 26.9547 41.8428 27.6663 41.9661C28.2751 42.0716 28.6196 42.0775 34.1902 42.0775C38.2651 42.0775 40.1636 42.0581 40.3716 42.0143C41.0657 41.8681 41.8754 41.2995 42.2099 40.7231C42.5794 40.0863 42.6721 39.2251 42.4493 38.4967C42.3357 38.1253 42.3347 38.103 42.4301 38.0475C43.5189 37.4137 44.0623 35.9638 43.6502 34.792C43.5848 34.606 43.5376 34.4493 43.5455 34.4439C43.5534 34.4384 43.6751 34.3553 43.816 34.2593C44.7433 33.6272 45.1962 32.44 44.9194 31.3673C44.8177 30.9728 44.6185 30.5687 44.3937 30.3011L44.2279 30.1036L44.4173 29.8374C45.6508 28.1038 44.8367 25.8145 42.7387 25.1167C42.4523 25.0215 42.1054 25.0117 38.4206 24.9941C36.2169 24.9836 34.4139 24.9625 34.4139 24.9472C34.4139 24.9319 34.5159 24.564 34.6405 24.1297C34.9116 23.1849 35.1723 21.96 35.2665 21.1886C35.3503 20.5021 35.308 19.3614 35.1815 18.8946C34.7814 17.4188 33.7691 16.0854 32.6049 15.5005C32.2303 15.3124 32.1293 15.2872 31.6988 15.275C31.3595 15.2653 31.0906 15.2946 30.8018 15.3729ZM32.0683 16.5694C32.5832 16.8055 33.3869 17.7232 33.7332 18.4703C34.0381 19.1283 34.1512 19.7143 34.1124 20.4349C34.0495 21.6018 33.7633 22.9452 33.2239 24.6058C32.9214 25.5372 32.8917 25.7411 33.0294 25.9396C33.221 26.2159 33.0993 26.2084 37.8967 26.2387L42.4272 26.2673L42.7224 26.4244C43.3255 26.7454 43.655 27.1651 43.7618 27.7482C43.8803 28.3953 43.5909 29.1013 43.0358 29.519C42.6643 29.7987 42.5619 30.0602 42.7048 30.3642C42.7556 30.4723 42.8724 30.6057 42.9643 30.6605C43.5057 30.9833 43.7733 31.4294 43.7765 32.0138C43.7805 32.7736 43.3069 33.3338 42.5153 33.5051C42.1562 33.5829 41.9459 33.8115 41.9459 34.1239C41.9459 34.2906 42.0023 34.4116 42.2002 34.6689C42.5019 35.0613 42.5911 35.3507 42.5542 35.8189C42.4957 36.5639 42.1009 36.9608 41.167 37.2139C40.7047 37.339 40.5816 37.8321 40.9136 38.2284C41.2624 38.6446 41.3486 38.8635 41.3486 39.3328C41.3486 39.6618 41.3202 39.8158 41.2266 39.9943C41.0629 40.3063 40.7215 40.6081 40.3831 40.74C40.117 40.8436 39.8553 40.8481 34.1308 40.8481C28.5173 40.8481 28.1273 40.8417 27.6771 40.7418C27.0391 40.6003 26.4164 40.388 26.0184 40.1762L25.6928 40.003V34.8191V29.6351L26.1472 29.4115C26.3972 29.2884 26.6491 29.1353 26.707 29.0712C26.7649 29.0071 27.6435 27.134 28.6594 24.9087L30.5064 20.8627V18.8349V16.8069L30.6904 16.7105C31.1676 16.4603 31.7094 16.4048 32.0683 16.5694ZM24.4337 34.7156L24.4186 40.7909L24.2887 41.0365C24.0885 41.415 23.7886 41.7153 23.4366 41.8899L23.116 42.0489H20.8508C18.5858 42.0489 18.5855 42.0489 18.2871 41.9127C17.899 41.7356 17.4685 41.2632 17.3303 40.8631C17.2325 40.5798 17.2264 40.2571 17.2264 35.3303V30.0983L17.3731 29.7838C17.5636 29.3753 17.7718 29.1316 18.092 28.9421C18.5751 28.6563 18.6716 28.6482 21.6588 28.6441L24.4488 28.6402L24.4337 34.7156Z" fill="#E9841A"/>
</svg>
