<svg width="116" height="90" viewBox="0 0 116 90" fill="none" xmlns="http://www.w3.org/2000/svg">
<path d="M98.6227 50.5054C96.2572 68.9923 80.1301 83.2942 60.5929 83.2942C41.0558 83.2942 24.9331 68.9923 22.5631 50.5054" fill="black"/>
<path d="M30.5239 37.5127C31.4519 36.6053 35.4451 32.8268 40.3789 31.6145C41.7885 31.2825 43.2296 31.1021 44.6777 31.0764C44.6777 31.0764 46.9159 31.0764 48.9675 31.6126C53.9959 32.9248 57.6297 37.755 58.2165 38.5526C58.3275 38.3303 59.4257 36.2215 61.7566 35.853C63.81 35.5282 65.9544 36.6933 66.9616 38.7568C67.2345 38.3938 71.1649 33.1798 77.7882 33.5654C83.5327 33.8994 86.738 38.176 87.1592 38.7568C88.23 37.7868 89.6311 37.4474 90.6992 37.9265C91.5918 38.3267 92.0703 39.2187 92.1549 39.3784C92.3796 39.7995 92.5185 40.2609 92.5634 40.7359C92.5634 40.7359 94.3239 39.6107 95.2792 39.1787C95.5722 39.0463 96.6439 38.5644 97.9422 38.5245C94.6432 21.2834 79.1857 8.2356 60.6111 8.2356C43.3403 8.2356 28.7635 19.5158 24.1489 34.9583C24.3279 34.9005 24.5102 34.8535 24.6948 34.8177C26.8137 34.4012 29.1428 35.4728 30.5239 37.5127Z" fill="black"/>
<path d="M98.6227 50.5363C98.8899 47.7279 98.8595 44.8992 98.5317 42.0972C98.3716 40.7361 98.1505 39.4657 97.8949 38.286C96.6858 38.4911 95.8933 38.7397 95.0745 39.1027C93.4105 39.8405 92.618 40.5546 92.618 40.5546C92.618 40.5546 92.3669 38.3187 90.5255 37.6508C89.5247 37.2879 88.16 37.6508 87.1592 38.649C86.7398 38.0683 83.5564 33.8142 77.8119 33.4767C71.1876 33.0919 67.2518 38.3006 66.9852 38.669C65.9781 36.6009 63.8337 35.4367 61.7793 35.7652C59.4493 36.1336 58.3512 38.2425 58.2402 38.4648C57.6534 37.6663 54.0196 32.8388 48.9911 31.5239C46.9395 30.9885 44.7014 30.9885 44.7005 30.9885C43.2527 31.0142 41.8119 31.1943 40.4026 31.5257C35.4687 32.7408 31.4756 36.5166 30.5476 37.424C29.1665 35.3868 26.8374 34.3115 24.7176 34.7244C24.5329 34.7599 24.3506 34.8066 24.1717 34.8641C23.6302 36.7619 23.2145 38.6931 22.9271 40.6453C22.4548 43.9201 22.3328 47.2357 22.5631 50.5363H98.6227Z" fill="white"/>
<path d="M89.6393 36.7588C89.6757 36.8913 91.6154 36.9675 93.1821 35.8513C93.4414 35.6699 95.0072 34.5129 95.1145 33.1291C95.3438 30.1482 88.9952 27.4377 85.7754 26.4622C83.2025 25.6818 79.8617 25.2544 78.042 25.2499C77.8492 25.2499 76.8975 25.2499 75.6001 25.1955C74.7367 25.1583 73.5986 25.0893 73.0354 25.023C70.8191 24.7635 69.186 23.5893 68.4545 23.1265C65.4886 21.25 61.4863 21.0322 58.2365 20.858C54.0878 20.6329 48.7855 21.8262 45.1936 22.828C41.1158 23.965 40.5954 24.6084 38.1089 24.6428C34.1367 24.7027 30.6731 23.1347 30.3756 23.7354C30.2118 24.0702 31.3646 24.4296 31.6639 25.5503C32.0032 26.8207 30.8451 27.592 29.7315 30.0955C28.9572 31.8305 28.5069 33.6218 28.7653 33.7325C29.0236 33.8432 29.5759 32.0084 31.3418 30.7017C34.033 28.7117 37.7787 29.2653 37.7832 28.8869C37.7832 28.5529 34.9201 28.4631 34.8846 27.9794C34.8609 27.5602 36.8652 27.0148 38.7576 26.7617C42.1612 26.2998 44.8879 26.8134 46.1653 27.0638C52.2009 28.2517 53.2253 28.7789 57.5978 29.64C64.0502 30.9104 66.4411 30.6618 68.3863 30.0937C70.6608 29.4313 72.6788 28.2299 72.5714 27.9722C72.4804 27.7598 70.1231 28.9114 66.4521 29.1845C64.5415 29.327 63.0485 29.1727 61.3126 28.984C58.6741 28.6972 57.1648 28.2998 54.7165 27.7771C47.5536 26.2499 44.0918 26.1646 44.0718 25.3969C44.0618 25.0448 44.988 24.6909 46.8403 23.984C48.1514 23.481 49.4987 23.0776 50.8708 22.7772C52.8594 22.3542 54.8843 22.1232 56.9173 22.0875C58.3976 22.0603 61.0915 22.0258 64.2458 22.7772C68.6492 23.8262 68.3244 25.0648 72.1247 25.8806C75.4291 26.5902 75.8986 25.6991 80.736 26.3978C83.9885 26.866 86.1093 27.6029 86.5988 27.7771C88.5166 28.4586 93.9882 30.4032 93.9281 32.9494C93.9018 34.081 92.7882 35.0728 92.4624 35.3631C91.1523 36.5265 89.6066 36.639 89.6393 36.7588Z" fill="#F7931E"/>
<path d="M34.1868 48.4193C33.371 48.4193 32.7714 48.2302 32.3881 47.8521C32.0048 47.474 31.8131 46.8818 31.8131 46.0754V42.1272C31.8131 41.2633 32.0108 40.6363 32.4063 40.2461C32.8018 39.8559 33.4368 39.6605 34.3114 39.6599H38.8095V41.404H34.8109C34.3111 41.404 34.0615 41.652 34.0621 42.1481V46.1171C34.0576 46.2002 34.0702 46.2834 34.0991 46.3614C34.1281 46.4395 34.1728 46.5107 34.2305 46.5709C34.291 46.6279 34.3626 46.6721 34.4408 46.7008C34.519 46.7295 34.6022 46.7421 34.6854 46.7378H36.5659C36.7927 46.7384 37.0182 46.7029 37.2337 46.6326H38.8086V48.2605C38.2609 48.3662 37.7043 48.4197 37.1464 48.4202H34.1868V48.4193Z" fill="black"/>
<path d="M41.245 48.5063C40.6785 48.5063 40.2236 48.336 39.8803 47.9954C39.537 47.6548 39.3663 47.2011 39.3681 46.6342V46.0734C39.3681 45.5078 39.5389 45.0541 39.8803 44.7123C40.2218 44.3705 40.6767 44.2002 41.245 44.2014H43.8061V43.7305C43.8075 43.6746 43.7971 43.6192 43.7756 43.5676C43.7541 43.516 43.7221 43.4695 43.6815 43.431C43.6399 43.3913 43.5908 43.3603 43.5371 43.3398C43.4833 43.3192 43.4261 43.3095 43.3685 43.3112H42.2886C41.9238 43.3102 41.5593 43.3299 41.1968 43.3702C40.7992 43.4217 40.3987 43.4474 39.9977 43.4473V41.9084C40.4605 41.838 40.9279 41.8028 41.3961 41.8031C41.8373 41.7255 42.2846 41.6878 42.7326 41.6906H44.1191C44.6856 41.6906 45.1405 41.86 45.4838 42.1987C45.8271 42.5375 45.9966 42.9876 45.9924 43.549V48.3819H44.0563L43.9308 47.7585C43.709 47.9033 43.4749 48.0284 43.2311 48.1324C42.9936 48.2313 42.7506 48.3167 42.5033 48.3883C42.2357 48.4672 41.9581 48.507 41.679 48.5063H41.245ZM42.3059 46.7622C42.4733 46.7613 42.6405 46.7489 42.8063 46.725C42.981 46.6996 43.1432 46.6693 43.293 46.6342C43.4658 46.6012 43.6367 46.5594 43.8052 46.509V45.7613H41.9947C41.9369 45.76 41.8795 45.7705 41.8258 45.792C41.7721 45.8135 41.7234 45.8456 41.6825 45.8864C41.6416 45.9271 41.6094 45.9758 41.5879 46.0293C41.5663 46.0828 41.5559 46.1401 41.5571 46.1978V46.3221C41.5557 46.3798 41.5661 46.4371 41.5876 46.4907C41.6091 46.5443 41.6413 46.5929 41.6822 46.6337C41.7231 46.6746 41.7719 46.7067 41.8256 46.7281C41.8794 46.7496 41.9369 46.7599 41.9947 46.7585L42.3059 46.7622Z" fill="black"/>
<path d="M49.053 41.7777L49.1776 42.588C49.3765 42.4167 49.5895 42.2625 49.8145 42.1271C50.0399 41.9989 50.2762 41.8905 50.5205 41.8031C50.8123 41.6994 51.1205 41.6487 51.4303 41.6534H51.9925V43.5844H50.9272C50.7193 43.5835 50.5119 43.6045 50.3085 43.647C50.1126 43.6887 49.9397 43.7302 49.7899 43.7713C49.6152 43.8294 49.4524 43.892 49.3032 43.9582V48.3819H47.1196V41.7777H49.053Z" fill="black"/>
<path d="M59.3593 39.6599L60.8586 45.2669L62.1705 39.6599H64.607L62.2306 48.3821H59.8596L58.3603 42.962L56.8628 48.3821H54.4873L52.1136 39.6599H54.55L55.862 45.2669L57.3604 39.6599H59.3593Z" fill="black"/>
<path d="M66.6677 48.5062C66.1018 48.5062 65.6469 48.3359 65.303 47.9954C64.9591 47.6548 64.7884 47.2011 64.7908 46.6342V46.0734C64.7908 45.5078 64.9615 45.0541 65.303 44.7123C65.6445 44.3705 66.0994 44.2002 66.6677 44.2014H69.2288V43.7305C69.2301 43.6746 69.2197 43.6191 69.1983 43.5676C69.1768 43.516 69.1447 43.4695 69.1042 43.431C69.0627 43.3914 69.0138 43.3604 68.9602 43.3399C68.9066 43.3193 68.8495 43.3096 68.7921 43.3112H67.7113C67.3465 43.3102 66.982 43.3299 66.6195 43.3702C66.2219 43.4217 65.8213 43.4474 65.4204 43.4473V41.9083C65.8835 41.838 66.3512 41.8028 66.8197 41.8031C67.2609 41.7255 67.7082 41.6879 68.1562 41.6906H69.5436C70.1095 41.6906 70.5644 41.86 70.9083 42.1987C71.2522 42.5375 71.4227 42.9876 71.4196 43.549V48.3819H69.479L69.3544 47.7585C69.1323 47.9029 68.8983 48.028 68.6547 48.1324C68.4171 48.2311 68.1741 48.3165 67.9269 48.3883C67.6593 48.4672 67.3816 48.507 67.1026 48.5062H66.6677ZM67.7304 46.7622C67.8975 46.7613 68.0644 46.7489 68.2299 46.725C68.4045 46.6996 68.5674 46.6705 68.7166 46.6342C68.8894 46.6013 69.0603 46.5595 69.2288 46.509V45.7613H67.4165C67.3587 45.76 67.3013 45.7705 67.2477 45.792C67.1941 45.8135 67.1454 45.8456 67.1046 45.8864C67.0638 45.9272 67.0317 45.9758 67.0102 46.0293C66.9888 46.0828 66.9784 46.1401 66.9798 46.1978V46.3221C66.9782 46.3797 66.9883 46.4372 67.0097 46.4908C67.0311 46.5444 67.0631 46.5931 67.104 46.634C67.1449 46.6748 67.1937 46.7069 67.2474 46.7284C67.3011 46.7498 67.3587 46.76 67.4165 46.7585L67.7304 46.7622Z" fill="black"/>
<path d="M74.351 43.8341C74.349 43.8919 74.3588 43.9495 74.3799 44.0035C74.401 44.0574 74.4328 44.1065 74.4735 44.1477C74.5142 44.189 74.5628 44.2216 74.6165 44.2435C74.6703 44.2653 74.7279 44.2761 74.7859 44.2751H77.034C77.6011 44.2751 78.056 44.4439 78.3987 44.7814C78.7414 45.119 78.9121 45.5676 78.9109 46.1271V46.6217C78.9109 47.1819 78.7402 47.6304 78.3987 47.9674C78.0572 48.3044 77.6023 48.4731 77.034 48.4737H75.3964C74.8834 48.4756 74.3711 48.4371 73.8642 48.3585C73.3377 48.3595 72.8117 48.3267 72.2894 48.2605V46.6435C72.74 46.6913 73.1949 46.739 73.6541 46.7868H76.2925C76.35 46.7887 76.4073 46.7792 76.461 46.7588C76.5147 46.7384 76.5638 46.7075 76.6055 46.668C76.6461 46.6297 76.6782 46.5834 76.6997 46.5319C76.7212 46.4805 76.7315 46.4251 76.7301 46.3694V45.952H74.0389C73.4718 45.952 73.0169 45.7817 72.6742 45.4411C72.3315 45.1005 72.1608 44.6468 72.162 44.08V43.6435C72.162 43.0791 72.3327 42.6254 72.6742 42.2824C73.0157 41.9394 73.4706 41.7691 74.0389 41.7715H78.2859V43.3913H74.7859C74.728 43.3899 74.6705 43.4003 74.6168 43.4217C74.5631 43.4432 74.5143 43.4752 74.4734 43.5161C74.4325 43.5569 74.4003 43.6055 74.3788 43.6591C74.3573 43.7127 74.3469 43.77 74.3483 43.8277L74.351 43.8341Z" fill="black"/>
<path d="M83.4709 43.3604H82.9395C82.778 43.3586 82.6168 43.3757 82.4592 43.4112C82.2918 43.462 82.1298 43.5019 81.9715 43.5373V48.3821H79.7898V39.6599H81.9733V41.9085C82.2144 41.8577 82.461 41.8178 82.7103 41.7815C82.9268 41.747 83.1579 41.7179 83.4035 41.6907C83.6338 41.6661 83.8652 41.6534 84.0968 41.6526H84.6591C85.2262 41.6526 85.6811 41.8229 86.0238 42.1635C86.3665 42.5041 86.5372 42.9578 86.536 43.5246V48.3839H84.3525V43.7941C84.3539 43.7368 84.3436 43.6798 84.3222 43.6266C84.3007 43.5734 84.2686 43.5251 84.2278 43.4847C84.1868 43.4439 84.138 43.4118 84.0842 43.3904C84.0303 43.3691 83.9727 43.3588 83.9148 43.3604H83.4709Z" fill="black"/>
<path d="M57.5378 36.189C58.4001 36.189 59.0991 35.4918 59.0991 34.6318C59.0991 33.7719 58.4001 33.0747 57.5378 33.0747C56.6756 33.0747 55.9766 33.7719 55.9766 34.6318C55.9766 35.4918 56.6756 36.189 57.5378 36.189Z" fill="white"/>
<path d="M60.7649 34.7353C61.2246 34.7353 61.5973 34.3636 61.5973 33.905C61.5973 33.4464 61.2246 33.0747 60.7649 33.0747C60.3051 33.0747 59.9324 33.4464 59.9324 33.905C59.9324 34.3636 60.3051 34.7353 60.7649 34.7353Z" fill="white"/>
<path d="M43.6497 61.0679H36.7161V52.3457H43.6497V54.0907H38.9651V55.7721H42.6507V57.5171H38.9651V59.3238H43.6497V61.0679Z" fill="#F7931E"/>
<path d="M48.4016 54.4636H50.838L48.8365 57.7657L50.8981 61.0679H48.4598L47.3353 59.0715L46.2108 61.0679H43.7752L45.8359 57.7657L43.8343 54.4636H46.2708L47.3325 56.46L48.4016 54.4636Z" fill="#F7931E"/>
<path d="M53.582 61.0677V63.1865H51.3984V54.4634H53.3345L53.4591 55.0868C53.6813 54.9426 53.9153 54.8175 54.1588 54.713C54.3964 54.6145 54.6394 54.5293 54.8866 54.458C55.1542 54.3787 55.4318 54.3387 55.7109 54.3391H56.2732C56.8391 54.3391 57.294 54.5094 57.6379 54.85C57.9818 55.1906 58.1525 55.6443 58.1501 56.2111V59.0768C58.1501 59.6999 57.973 60.1881 57.6188 60.5414C57.2645 60.8947 56.7754 61.071 56.1512 61.0704L53.582 61.0677ZM53.582 59.3853H55.4553C55.7882 59.3853 55.9556 59.2192 55.9556 58.8871V56.5823C55.9569 56.5246 55.9464 56.4673 55.9249 56.4138C55.9033 56.3603 55.8711 56.3117 55.8302 56.2709C55.7893 56.2301 55.7406 56.198 55.687 56.1765C55.6333 56.155 55.5758 56.1446 55.518 56.1458H55.0804C54.9133 56.1466 54.7464 56.159 54.5809 56.183C54.4062 56.2084 54.2434 56.2374 54.0942 56.2737C53.9213 56.306 53.7503 56.3475 53.582 56.3981V59.3853Z" fill="#F7931E"/>
<path d="M61.2025 54.4635L61.3271 55.2738C61.5261 55.1027 61.7392 54.9485 61.964 54.8128C62.1896 54.685 62.4258 54.5766 62.67 54.4889C62.9619 54.3853 63.27 54.3346 63.5798 54.3391H64.1411V56.2711H63.0758C62.8682 56.2699 62.6612 56.2905 62.458 56.3328C62.2627 56.3745 62.0898 56.4159 61.9394 56.4571C61.7647 56.5161 61.6019 56.5778 61.4518 56.644V61.0677H59.2682V54.4635H61.2025Z" fill="#F7931E"/>
<path d="M64.6379 56.3219C64.6379 55.7019 64.815 55.2179 65.1693 54.8701C65.5235 54.5222 66.0127 54.3468 66.6368 54.3438H69.1351C69.7598 54.3438 70.2493 54.5204 70.6035 54.8737C70.9578 55.227 71.1346 55.7149 71.134 56.3374V58.6431H66.8242V59.1141C66.8229 59.1692 66.8333 59.224 66.8548 59.2749C66.8763 59.3257 66.9083 59.3714 66.9488 59.409C66.9907 59.4482 67.0399 59.4788 67.0936 59.499C67.1473 59.5193 67.2044 59.5288 67.2618 59.5269H69.61L70.8838 59.3863V60.9471C70.3911 61.0145 69.8944 61.0479 69.3971 61.0469C68.9307 61.1226 68.4586 61.1581 67.986 61.153H66.5121C65.9456 61.153 65.4907 60.9837 65.1474 60.6449C64.8041 60.3061 64.6334 59.856 64.6352 59.2946L64.6379 56.3219ZM67.3255 55.8973C66.9925 55.8973 66.826 56.0633 66.826 56.3954V57.0805H68.9495V56.3954C68.9495 56.0633 68.783 55.8973 68.45 55.8973H67.3255Z" fill="#F7931E"/>
<path d="M74.0699 56.5197C74.0685 56.5774 74.0789 56.6348 74.1004 56.6883C74.1219 56.7419 74.1541 56.7906 74.195 56.8314C74.2359 56.8722 74.2847 56.9043 74.3384 56.9257C74.3921 56.9472 74.4496 56.9575 74.5075 56.9562H76.7556C77.3227 56.9562 77.7776 57.125 78.1203 57.4625C78.463 57.8001 78.6338 58.2486 78.6325 58.8082V59.3028C78.6325 59.8624 78.4618 60.3109 78.1203 60.6485C77.7788 60.986 77.3239 61.1548 76.7556 61.1548H75.118C74.6036 61.1581 74.0898 61.1208 73.5813 61.0432C73.0548 61.0442 72.5287 61.0114 72.0064 60.9452V59.33L73.3711 59.4734H76.0096C76.0671 59.4751 76.1244 59.4654 76.1781 59.4448C76.2318 59.4243 76.2809 59.3933 76.3225 59.3536C76.3632 59.3154 76.3953 59.269 76.4168 59.2176C76.4382 59.1661 76.4486 59.1108 76.4472 59.055V58.6385H73.7578C73.1907 58.6385 72.7358 58.4682 72.3931 58.1277C72.0504 57.7871 71.8797 57.3334 71.8809 56.7665V56.3301C71.8809 55.7656 72.0516 55.3119 72.3931 54.9689C72.7346 54.6259 73.1895 54.4556 73.7578 54.458H78.0057V56.0787H74.5075C74.4496 56.0771 74.3921 56.0872 74.3383 56.1085C74.2845 56.1298 74.2357 56.1618 74.1947 56.2026C74.1538 56.2434 74.1216 56.292 74.1001 56.3456C74.0786 56.3992 74.0684 56.4566 74.0699 56.5143V56.5197Z" fill="#F7931E"/>
<path d="M81.3155 56.5197C81.3142 56.5774 81.3245 56.6348 81.346 56.6883C81.3675 56.7419 81.3997 56.7906 81.4406 56.8314C81.4816 56.8722 81.5303 56.9043 81.5841 56.9257C81.6378 56.9472 81.6953 56.9575 81.7531 56.9562H84.0013C84.5684 56.9562 85.0233 57.125 85.366 57.4625C85.7087 57.8001 85.8794 58.2486 85.8782 58.8082V59.3028C85.8782 59.8624 85.7074 60.3109 85.366 60.6485C85.0245 60.986 84.5696 61.1548 84.0013 61.1548H82.3636C81.8492 61.1581 81.3354 61.1208 80.827 61.0432C80.3004 61.0442 79.7744 61.0114 79.2521 60.9452V59.33L80.6168 59.4734H83.2552C83.3126 59.475 83.3697 59.4653 83.4233 59.4447C83.4769 59.4242 83.5258 59.3932 83.5673 59.3536C83.6079 59.3154 83.64 59.269 83.6615 59.2176C83.683 59.1661 83.6934 59.1108 83.6919 59.055V58.6385H81.0035C80.4363 58.6385 79.9814 58.4682 79.6388 58.1277C79.2961 57.7871 79.1253 57.3334 79.1265 56.7665V56.3301C79.1265 55.7656 79.2973 55.3119 79.6388 54.9689C79.9802 54.6259 80.4351 54.4556 81.0035 54.458H85.2486V56.0787H81.7531C81.6953 56.0771 81.6377 56.0872 81.584 56.1085C81.5302 56.1298 81.4814 56.1618 81.4404 56.2026C81.3994 56.2434 81.3673 56.292 81.3458 56.3456C81.3243 56.3992 81.314 56.4566 81.3155 56.5143V56.5197Z" fill="#F7931E"/>
</svg>
