<svg width="28" height="28" viewBox="0 0 28 28" fill="none" xmlns="http://www.w3.org/2000/svg">
<path d="M18.2955 12.5681C18.2955 11.4289 17.8429 10.3363 17.0373 9.53077C16.2318 8.72522 15.1392 8.27266 14 8.27266C12.8608 8.27266 11.7682 8.72522 10.9627 9.53077C10.1571 10.3363 9.70455 11.4289 9.70455 12.5681C9.70455 14.3302 11.1144 16.6268 14 19.3778C16.8856 16.6268 18.2955 14.3302 18.2955 12.5681ZM14 20.6818C10.4997 17.5003 8.75 14.7951 8.75 12.5681C8.75 11.1757 9.30312 9.84037 10.2877 8.8558C11.2723 7.87124 12.6076 7.31812 14 7.31812C15.3924 7.31812 16.7277 7.87124 17.7123 8.8558C18.6969 9.84037 19.25 11.1757 19.25 12.5681C19.25 14.7951 17.5003 17.5003 14 20.6818Z" fill="#E9841A"/>
<path d="M14 13.9998C14.3798 13.9998 14.7439 13.849 15.0125 13.5805C15.281 13.3119 15.4318 12.9477 15.4318 12.568C15.4318 12.1883 15.281 11.8241 15.0125 11.5556C14.7439 11.287 14.3798 11.1362 14 11.1362C13.6203 11.1362 13.2561 11.287 12.9876 11.5556C12.719 11.8241 12.5682 12.1883 12.5682 12.568C12.5682 12.9477 12.719 13.3119 12.9876 13.5805C13.2561 13.849 13.6203 13.9998 14 13.9998ZM14 14.9544C13.3671 14.9544 12.7601 14.7029 12.3126 14.2554C11.8651 13.8079 11.6136 13.2009 11.6136 12.568C11.6136 11.9351 11.8651 11.3281 12.3126 10.8806C12.7601 10.4331 13.3671 10.1816 14 10.1816C14.6329 10.1816 15.2399 10.4331 15.6874 10.8806C16.135 11.3281 16.3864 11.9351 16.3864 12.568C16.3864 13.2009 16.135 13.8079 15.6874 14.2554C15.2399 14.7029 14.6329 14.9544 14 14.9544Z" fill="#E9841A"/>
<circle cx="14" cy="14" r="13.5" stroke="#E9841A"/>
</svg>
