<svg width="28" height="28" viewBox="0 0 28 28" fill="none" xmlns="http://www.w3.org/2000/svg">
<mask id="path-1-inside-1_44_40" fill="white">
<path fill-rule="evenodd" clip-rule="evenodd" d="M8.14903 7.79545C8.05542 7.79598 7.96579 7.8334 7.89959 7.89959C7.8334 7.96579 7.79598 8.05542 7.79545 8.14903C7.79545 14.9836 13.3346 20.5227 20.1691 20.5227C20.2628 20.5222 20.3524 20.4848 20.4186 20.4186C20.4848 20.3524 20.5222 20.2628 20.5227 20.1691V17.5477C20.5222 17.4541 20.4848 17.3645 20.4186 17.2983C20.3524 17.2321 20.2628 17.1947 20.1691 17.1941C19.1951 17.1941 18.2441 17.037 17.3624 16.7459L17.3584 16.7443C17.2969 16.7242 17.231 16.7215 17.1681 16.7366C17.1052 16.7517 17.0477 16.784 17.002 16.8298L15.1447 18.6872L14.8869 18.5552C12.6871 17.428 10.883 15.6327 9.76301 13.4309L9.63176 13.1735L11.4891 11.3161C11.5363 11.2699 11.5697 11.2114 11.5856 11.1473C11.6014 11.0832 11.5992 11.0159 11.579 10.953C11.2815 10.0482 11.1305 9.10155 11.132 8.14903C11.1315 8.05542 11.094 7.96579 11.0279 7.89959C10.9617 7.8334 10.872 7.79598 10.7784 7.79545H8.14903ZM7 8.14903C7.00053 7.84445 7.12175 7.5525 7.33713 7.33713C7.5525 7.12175 7.84445 7.00053 8.14903 7H10.7784C11.083 7.00053 11.3749 7.12175 11.5903 7.33713C11.8057 7.5525 11.9269 7.84445 11.9274 8.14903C11.9274 9.04551 12.0706 9.905 12.3355 10.7064L12.3363 10.7088L12.3371 10.7116C12.4015 10.9136 12.4088 11.1294 12.3584 11.3353C12.3079 11.5412 12.2016 11.7292 12.0511 11.8785L10.6058 13.3243C11.6166 15.1782 13.1402 16.7015 14.9943 17.712L16.4397 16.267C16.5903 16.1162 16.7801 16.0105 16.9876 15.9617C17.1951 15.913 17.4121 15.9231 17.6141 15.991C18.4388 16.2616 19.3013 16.3991 20.1691 16.3983C20.4737 16.3988 20.7657 16.52 20.9811 16.7354C21.1964 16.9508 21.3177 17.2427 21.3182 17.5473V20.1691C21.3177 20.4737 21.1964 20.7657 20.9811 20.9811C20.7657 21.1964 20.4737 21.3177 20.1691 21.3182C12.8951 21.3182 7 15.4231 7 8.14903Z"/>
</mask>
<path fill-rule="evenodd" clip-rule="evenodd" d="M8.14903 7.79545C8.05542 7.79598 7.96579 7.8334 7.89959 7.89959C7.8334 7.96579 7.79598 8.05542 7.79545 8.14903C7.79545 14.9836 13.3346 20.5227 20.1691 20.5227C20.2628 20.5222 20.3524 20.4848 20.4186 20.4186C20.4848 20.3524 20.5222 20.2628 20.5227 20.1691V17.5477C20.5222 17.4541 20.4848 17.3645 20.4186 17.2983C20.3524 17.2321 20.2628 17.1947 20.1691 17.1941C19.1951 17.1941 18.2441 17.037 17.3624 16.7459L17.3584 16.7443C17.2969 16.7242 17.231 16.7215 17.1681 16.7366C17.1052 16.7517 17.0477 16.784 17.002 16.8298L15.1447 18.6872L14.8869 18.5552C12.6871 17.428 10.883 15.6327 9.76301 13.4309L9.63176 13.1735L11.4891 11.3161C11.5363 11.2699 11.5697 11.2114 11.5856 11.1473C11.6014 11.0832 11.5992 11.0159 11.579 10.953C11.2815 10.0482 11.1305 9.10155 11.132 8.14903C11.1315 8.05542 11.094 7.96579 11.0279 7.89959C10.9617 7.8334 10.872 7.79598 10.7784 7.79545H8.14903ZM7 8.14903C7.00053 7.84445 7.12175 7.5525 7.33713 7.33713C7.5525 7.12175 7.84445 7.00053 8.14903 7H10.7784C11.083 7.00053 11.3749 7.12175 11.5903 7.33713C11.8057 7.5525 11.9269 7.84445 11.9274 8.14903C11.9274 9.04551 12.0706 9.905 12.3355 10.7064L12.3363 10.7088L12.3371 10.7116C12.4015 10.9136 12.4088 11.1294 12.3584 11.3353C12.3079 11.5412 12.2016 11.7292 12.0511 11.8785L10.6058 13.3243C11.6166 15.1782 13.1402 16.7015 14.9943 17.712L16.4397 16.267C16.5903 16.1162 16.7801 16.0105 16.9876 15.9617C17.1951 15.913 17.4121 15.9231 17.6141 15.991C18.4388 16.2616 19.3013 16.3991 20.1691 16.3983C20.4737 16.3988 20.7657 16.52 20.9811 16.7354C21.1964 16.9508 21.3177 17.2427 21.3182 17.5473V20.1691C21.3177 20.4737 21.1964 20.7657 20.9811 20.9811C20.7657 21.1964 20.4737 21.3177 20.1691 21.3182C12.8951 21.3182 7 15.4231 7 8.14903Z" fill="#E9841A"/>
<path d="M8.14903 7.79545V6.79544L8.14346 6.79547L8.14903 7.79545ZM7.79545 8.14903L6.79545 8.14346V8.14903H7.79545ZM20.1691 20.5227V21.5227L20.1747 21.5227L20.1691 20.5227ZM20.5227 20.1691L21.5227 20.1747V20.1691H20.5227ZM20.5227 17.5477H21.5227L21.5227 17.5422L20.5227 17.5477ZM20.1691 17.1941L20.1747 16.1941H20.1691V17.1941ZM17.3624 16.7459L16.9911 17.6744L17.0196 17.6858L17.0489 17.6955L17.3624 16.7459ZM17.3584 16.7443L17.7297 15.8158L17.7002 15.804L17.67 15.7941L17.3584 16.7443ZM17.002 16.8298L17.7092 17.5369L17.7109 17.5352L17.002 16.8298ZM15.1447 18.6872L14.6887 19.5772L15.3368 19.9093L15.8518 19.3943L15.1447 18.6872ZM14.8869 18.5552L14.4309 19.4451L14.431 19.4452L14.8869 18.5552ZM9.76301 13.4309L10.6543 12.9775L10.6538 12.9765L9.76301 13.4309ZM9.63176 13.1735L8.92465 12.4664L8.41069 12.9804L8.74094 13.6279L9.63176 13.1735ZM11.4891 11.3161L10.789 10.6021L10.782 10.609L11.4891 11.3161ZM11.579 10.953L12.5314 10.648L12.529 10.6406L11.579 10.953ZM11.132 8.14903L12.132 8.15055L12.132 8.14346L11.132 8.14903ZM11.0279 7.89959L10.3207 8.6067L11.0279 7.89959ZM10.7784 7.79545L10.784 6.79545H10.7784V7.79545ZM7 8.14903L6 8.14731V8.14903H7ZM8.14903 7V6L8.14731 6L8.14903 7ZM10.7784 7L10.7801 6H10.7784V7ZM11.9274 8.14903H12.9274L12.9274 8.14731L11.9274 8.14903ZM12.3355 10.7064L11.386 11.0202L11.3868 11.0225L12.3355 10.7064ZM12.3363 10.7088L13.2978 10.434L13.2919 10.4132L13.285 10.3927L12.3363 10.7088ZM12.3371 10.7116L11.3756 10.9864L11.3798 11.0009L11.3843 11.0153L12.3371 10.7116ZM12.0511 11.8785L11.3467 11.1687L11.3439 11.1715L12.0511 11.8785ZM10.6058 13.3243L9.89859 12.6173L9.36975 13.1462L9.72782 13.803L10.6058 13.3243ZM14.9943 17.712L14.5158 18.5901L15.1724 18.9479L15.7013 18.4192L14.9943 17.712ZM16.4397 16.267L17.1467 16.9742L17.1471 16.9738L16.4397 16.267ZM17.6141 15.991L17.2955 16.9389L17.3024 16.9412L17.6141 15.991ZM20.1691 16.3983L20.1709 15.3983L20.1682 15.3983L20.1691 16.3983ZM21.3182 17.5473H22.3182L22.3182 17.5456L21.3182 17.5473ZM21.3182 20.1691L22.3182 20.1709V20.1691H21.3182ZM20.1691 21.3182V22.3182L20.1709 22.3182L20.1691 21.3182ZM8.14346 6.79547C7.78656 6.79746 7.44485 6.94012 7.19249 7.19249L8.6067 8.6067C8.48672 8.72667 8.32428 8.79449 8.15461 8.79544L8.14346 6.79547ZM7.19249 7.19249C6.94012 7.44485 6.79746 7.78656 6.79547 8.14346L8.79544 8.15461C8.79449 8.32428 8.72667 8.48672 8.6067 8.6067L7.19249 7.19249ZM6.79545 8.14903C6.79545 15.5359 12.7823 21.5227 20.1691 21.5227V19.5227C13.8869 19.5227 8.79545 14.4313 8.79545 8.14903H6.79545ZM20.1747 21.5227C20.5316 21.5207 20.8733 21.3781 21.1257 21.1257L19.7115 19.7115C19.8315 19.5915 19.9939 19.5237 20.1636 19.5227L20.1747 21.5227ZM21.1257 21.1257C21.3781 20.8733 21.5207 20.5316 21.5227 20.1747L19.5227 20.1636C19.5237 19.9939 19.5915 19.8315 19.7115 19.7115L21.1257 21.1257ZM21.5227 20.1691V17.5477H19.5227V20.1691H21.5227ZM21.5227 17.5422C21.5207 17.1853 21.3781 16.8435 21.1257 16.5912L19.7115 18.0054C19.5915 17.8854 19.5237 17.723 19.5227 17.5533L21.5227 17.5422ZM21.1257 16.5912C20.8733 16.3388 20.5316 16.1962 20.1747 16.1942L20.1636 18.1941C19.9939 18.1932 19.8315 18.1254 19.7115 18.0054L21.1257 16.5912ZM20.1691 16.1941C19.302 16.1941 18.4569 16.0542 17.6759 15.7963L17.0489 17.6955C18.0314 18.0199 19.0882 18.1941 20.1691 18.1941V16.1941ZM17.7337 15.8174L17.7297 15.8158L16.9871 17.6728L16.9911 17.6744L17.7337 15.8174ZM17.67 15.7941C17.4325 15.7162 17.1779 15.7058 16.9348 15.7642L17.4014 17.709C17.2842 17.7371 17.1614 17.7321 17.0468 17.6945L17.67 15.7941ZM16.9348 15.7642C16.6916 15.8225 16.4695 15.9473 16.2932 16.1245L17.7109 17.5352C17.6259 17.6207 17.5187 17.6808 17.4014 17.709L16.9348 15.7642ZM16.2949 16.1227L14.4376 17.9801L15.8518 19.3943L17.7092 17.5369L16.2949 16.1227ZM15.6006 17.7972L15.3429 17.6652L14.431 19.4452L14.6887 19.5772L15.6006 17.7972ZM15.3429 17.6652C13.328 16.6328 11.6775 14.989 10.6543 12.9775L8.8717 13.8842C10.0885 16.2764 12.0462 18.2233 14.4309 19.4451L15.3429 17.6652ZM10.6538 12.9765L10.5226 12.7192L8.74094 13.6279L8.87219 13.8852L10.6538 12.9765ZM10.3389 13.8806L12.1963 12.0232L10.782 10.609L8.92465 12.4664L10.3389 13.8806ZM12.1893 12.0301C12.3688 11.8541 12.4959 11.6317 12.5563 11.3876L10.6149 10.907C10.6435 10.7912 10.7038 10.6857 10.789 10.6021L12.1893 12.0301ZM12.5563 11.3876C12.6167 11.1435 12.6081 10.8875 12.5314 10.6481L10.6267 11.258C10.5903 11.1443 10.5862 11.0228 10.6149 10.907L12.5563 11.3876ZM12.529 10.6406C12.2647 9.83707 12.1307 8.99643 12.132 8.15055L10.132 8.14752C10.1304 9.20667 10.2982 10.2593 10.6291 11.2654L12.529 10.6406ZM12.132 8.14346C12.13 7.78656 11.9873 7.44485 11.735 7.19249L10.3207 8.6067C10.2008 8.48673 10.133 8.32428 10.132 8.15461L12.132 8.14346ZM11.735 7.19249C11.4826 6.94012 11.1409 6.79746 10.784 6.79547L10.7728 8.79544C10.6032 8.79449 10.4407 8.72667 10.3207 8.6067L11.735 7.19249ZM10.7784 6.79545H8.14903V8.79545H10.7784V6.79545ZM8 8.15076C8.00007 8.1108 8.01597 8.07249 8.04423 8.04423L6.63002 6.63002C6.22753 7.0325 6.00098 7.57811 6 8.14731L8 8.15076ZM8.04423 8.04423C8.07249 8.01597 8.1108 8.00007 8.15076 8L8.14731 6C7.57811 6.00098 7.0325 6.22753 6.63002 6.63002L8.04423 8.04423ZM8.14903 8H10.7784V6H8.14903V8ZM10.7767 8C10.8166 8.00007 10.855 8.01597 10.8832 8.04423L12.2974 6.63002C11.8949 6.22753 11.3493 6.00098 10.7801 6L10.7767 8ZM10.8832 8.04423C10.9115 8.07249 10.9274 8.1108 10.9274 8.15076L12.9274 8.14731C12.9265 7.57811 12.6999 7.0325 12.2974 6.63002L10.8832 8.04423ZM10.9274 8.14903C10.9274 9.15261 11.0878 10.118 11.386 11.0202L13.285 10.3926C13.0534 9.69198 12.9274 8.93841 12.9274 8.14903H10.9274ZM11.3868 11.0225L11.3876 11.0249L13.285 10.3927L13.2842 10.3903L11.3868 11.0225ZM11.3748 10.9836L11.3756 10.9864L13.2986 10.4368L13.2978 10.434L11.3748 10.9836ZM11.3843 11.0153C11.3928 11.0418 11.3938 11.0702 11.3871 11.0973L13.3297 11.5733C13.4239 11.1886 13.4102 10.7853 13.2899 10.4079L11.3843 11.0153ZM11.3871 11.0973C11.3805 11.1244 11.3665 11.1491 11.3467 11.1687L12.7556 12.5883C13.0367 12.3093 13.2354 11.9581 13.3297 11.5733L11.3871 11.0973ZM11.3439 11.1715L9.89859 12.6173L11.313 14.0313L12.7583 12.5855L11.3439 11.1715ZM9.72782 13.803C10.8306 15.8256 12.4929 17.4876 14.5158 18.5901L15.4729 16.8339C13.7875 15.9154 12.4026 14.5307 11.4838 12.8456L9.72782 13.803ZM15.7013 18.4192L17.1467 16.9742L15.7326 15.5598L14.2873 17.0048L15.7013 18.4192ZM17.1471 16.9738C17.1662 16.9547 17.1901 16.9414 17.2164 16.9352L16.7588 14.9883C16.37 15.0796 16.0145 15.2777 15.7322 15.5603L17.1471 16.9738ZM17.2164 16.9352C17.2426 16.929 17.27 16.9303 17.2956 16.9389L17.9327 15.0431C17.5542 14.9159 17.1476 14.8969 16.7588 14.9883L17.2164 16.9352ZM17.3024 16.9412C18.2279 17.2449 19.196 17.3992 20.1701 17.3983L20.1682 15.3983C19.4066 15.399 18.6496 15.2783 17.9259 15.0409L17.3024 16.9412ZM20.1674 17.3983C20.2074 17.3984 20.2457 17.4143 20.2739 17.4425L21.6882 16.0283C21.2857 15.6258 20.7401 15.3993 20.1709 15.3983L20.1674 17.3983ZM20.2739 17.4425C20.3022 17.4708 20.3181 17.5091 20.3182 17.5491L22.3182 17.5456C22.3172 16.9764 22.0906 16.4308 21.6882 16.0283L20.2739 17.4425ZM20.3182 17.5473V20.1691H22.3182V17.5473H20.3182ZM20.3182 20.1674C20.3181 20.2074 20.3022 20.2457 20.2739 20.2739L21.6882 21.6882C22.0906 21.2857 22.3172 20.7401 22.3182 20.1709L20.3182 20.1674ZM20.2739 20.2739C20.2457 20.3022 20.2074 20.3181 20.1674 20.3182L20.1709 22.3182C20.7401 22.3172 21.2857 22.0906 21.6882 21.6882L20.2739 20.2739ZM20.1691 20.3182C13.4474 20.3182 8 14.8708 8 8.14903H6C6 15.9754 12.3428 22.3182 20.1691 22.3182V20.3182Z" fill="#E9841A" mask="url(#path-1-inside-1_44_40)"/>
<circle cx="14" cy="14" r="13.5" stroke="#E9841A"/>
</svg>
