<svg width="60" height="60" viewBox="0 0 60 60" fill="none" xmlns="http://www.w3.org/2000/svg">
<path d="M59.5 30C59.5 46.2924 46.2924 59.5 30 59.5C13.7076 59.5 0.5 46.2924 0.5 30C0.5 13.7076 13.7076 0.5 30 0.5C46.2924 0.5 59.5 13.7076 59.5 30Z" stroke="#E9841A"/>
<path d="M30.2551 44.25H39.2551V47.25H44.5051V35.25C41.5535 32.0908 39.4843 28.2111 38.5051 24H22.7551C21.7758 28.2111 19.7067 32.0908 16.7551 35.25V47.25H22.0051V44.25H31.0051" stroke="#E9841A" stroke-width="2" stroke-miterlimit="10"/>
<path d="M20.5051 39.75C21.5406 39.75 22.3801 38.9105 22.3801 37.875C22.3801 36.8395 21.5406 36 20.5051 36C19.4695 36 18.6301 36.8395 18.6301 37.875C18.6301 38.9105 19.4695 39.75 20.5051 39.75Z" stroke="#E9841A" stroke-miterlimit="10"/>
<path d="M40.7551 39.75C41.7906 39.75 42.6301 38.9105 42.6301 37.875C42.6301 36.8395 41.7906 36 40.7551 36C39.7195 36 38.8801 36.8395 38.8801 37.875C38.8801 38.9105 39.7195 39.75 40.7551 39.75Z" stroke="#E9841A" stroke-miterlimit="10"/>
<path d="M24.2776 37.5C24.5326 40.02 27.2776 42 30.6301 42C33.9826 42 36.7276 40.02 36.9826 37.5H24.2776Z" stroke="#E9841A" stroke-miterlimit="10"/>
<path d="M14.88 42.0001L14.5425 41.6626C14.0047 41.1225 13.6699 40.4133 13.5947 39.6548C13.5195 38.8963 13.7086 38.1352 14.13 37.5001L13.8225 37.1925C13.5766 36.9495 13.3847 36.6573 13.2594 36.335C13.134 36.0128 13.078 35.6677 13.095 35.3224C13.112 34.977 13.2016 34.6391 13.358 34.3307C13.5143 34.0223 13.7339 33.7504 14.0025 33.5326L15.6075 32.2501L15.435 32.0851C15.0916 31.7413 14.8288 31.3256 14.6654 30.868C14.5021 30.4103 14.4423 29.9222 14.4904 29.4387C14.5384 28.9552 14.6932 28.4883 14.9434 28.0718C15.1936 27.6553 15.5332 27.2995 15.9375 27.0301L17.1075 26.2801L16.6275 24.1276C16.5127 23.6129 16.5246 23.078 16.6623 22.5689C16.7999 22.0599 17.0592 21.5919 17.4178 21.2052C17.7764 20.8186 18.2236 20.5249 18.7209 20.3493C19.2182 20.1738 19.7506 20.1217 20.2725 20.1976L20.8575 20.2801L21.2475 19.5301C21.4683 19.0888 21.7868 18.7037 22.1787 18.4039C22.5706 18.1041 23.0256 17.8976 23.5093 17.8C23.993 17.7024 24.4925 17.7163 24.97 17.8406C25.4475 17.965 25.8904 18.1965 26.265 18.5176L28.3575 20.3101L29.205 19.4551C29.6138 19.0485 30.1399 18.7806 30.7091 18.6891C31.2783 18.5976 31.8619 18.6871 32.3775 18.9451L33.6075 19.5601C34.0064 19.1643 34.5456 18.9423 35.1075 18.9423C35.6694 18.9423 36.2086 19.1643 36.6075 19.5601L38.1075 21.0601L40.4325 20.4376H40.5C47.5425 18.0751 48.63 27.3151 45.63 28.5301C46.4375 29.1455 46.9922 30.0349 47.1897 31.0308C47.3873 32.0267 47.214 33.0605 46.7025 33.9376L46.38 34.4701L47.445 35.5351C47.7902 35.8803 48.018 36.3254 48.0961 36.8073C48.1742 37.2892 48.0986 37.7835 47.88 38.2201" stroke="#E9841A" stroke-miterlimit="10" stroke-linecap="round"/>
<path d="M32.5051 16.5C33.5406 16.5 34.3801 15.6605 34.3801 14.625C34.3801 13.5895 33.5406 12.75 32.5051 12.75C31.4695 12.75 30.6301 13.5895 30.6301 14.625C30.6301 15.6605 31.4695 16.5 32.5051 16.5Z" stroke="#E9841A" stroke-miterlimit="10"/>
<path d="M12.875 25.75C13.9105 25.75 14.75 24.9105 14.75 23.875C14.75 22.8395 13.9105 22 12.875 22C11.8395 22 11 22.8395 11 23.875C11 24.9105 11.8395 25.75 12.875 25.75Z" stroke="#E9841A" stroke-miterlimit="10"/>
<path d="M43.0051 18C44.0406 18 44.8801 17.1605 44.8801 16.125C44.8801 15.0895 44.0406 14.25 43.0051 14.25C41.9695 14.25 41.1301 15.0895 41.1301 16.125C41.1301 17.1605 41.9695 18 43.0051 18Z" stroke="#E9841A" stroke-miterlimit="10"/>
</svg>
