<svg width="60" height="60" viewBox="0 0 60 60" fill="none" xmlns="http://www.w3.org/2000/svg">
<path opacity="0.6" d="M59.5 30C59.5 46.2924 46.2924 59.5 30 59.5C13.7076 59.5 0.5 46.2924 0.5 30C0.5 13.7076 13.7076 0.5 30 0.5C46.2924 0.5 59.5 13.7076 59.5 30Z" stroke="#E9841A"/>
<path d="M21.75 44.25H30.75" stroke="#E9841A" stroke-width="2" stroke-miterlimit="10"/>
<path d="M30 44.25H39V47.25H44.25V35.25C41.2984 32.0908 39.2292 28.2111 38.25 24H21.75" stroke="#E9841A" stroke-width="2" stroke-miterlimit="10"/>
<path d="M40.5 39.75C41.5355 39.75 42.375 38.9105 42.375 37.875C42.375 36.8395 41.5355 36 40.5 36C39.4645 36 38.625 36.8395 38.625 37.875C38.625 38.9105 39.4645 39.75 40.5 39.75Z" stroke="#E9841A" stroke-miterlimit="10"/>
<path d="M24 37.5C24.255 40.02 27 42 30.3525 42C33.705 42 36.45 40.02 36.705 37.5H24Z" stroke="#E9841A" stroke-miterlimit="10"/>
<path d="M21 19.47C21.2208 19.0287 21.5393 18.6436 21.9312 18.3438C22.3231 18.0441 22.7781 17.8375 23.2618 17.7399C23.7455 17.6423 24.245 17.6562 24.7225 17.7806C25.2 17.9049 25.6429 18.1364 26.0175 18.4575L28.11 20.25L28.965 19.395C29.372 18.9881 29.8969 18.7198 30.465 18.6282C31.0332 18.5367 31.6158 18.6265 32.13 18.885L33.36 19.5C33.7589 19.1043 34.2981 18.8822 34.86 18.8822C35.4219 18.8822 35.9611 19.1043 36.36 19.5L37.86 21L40.1775 20.4375H40.245C47.2875 18.075 48.375 27.315 45.375 28.53C46.1825 29.1455 46.7372 30.0348 46.9347 31.0307C47.1323 32.0267 46.959 33.0604 46.4475 33.9375L46.125 34.47L47.19 35.535C47.5352 35.8802 47.763 36.3253 47.8411 36.8072C47.9192 37.2892 47.8436 37.7834 47.625 38.22V38.22" stroke="#E9841A" stroke-miterlimit="10" stroke-linecap="round"/>
<path d="M32.25 16.5C33.2855 16.5 34.125 15.6605 34.125 14.625C34.125 13.5895 33.2855 12.75 32.25 12.75C31.2145 12.75 30.375 13.5895 30.375 14.625C30.375 15.6605 31.2145 16.5 32.25 16.5Z" stroke="#E9841A" stroke-miterlimit="10"/>
<path d="M42.75 18C43.7855 18 44.625 17.1605 44.625 16.125C44.625 15.0895 43.7855 14.25 42.75 14.25C41.7145 14.25 40.875 15.0895 40.875 16.125C40.875 17.1605 41.7145 18 42.75 18Z" stroke="#E9841A" stroke-miterlimit="10"/>
<path d="M19.875 26.25C21.3247 26.25 22.5 25.0747 22.5 23.625C22.5 22.1753 21.3247 21 19.875 21C18.4253 21 17.25 22.1753 17.25 23.625C17.25 25.0747 18.4253 26.25 19.875 26.25Z" fill="#E9841A"/>
<path d="M32.025 27.6075V27.4875C31.9885 27.351 31.9253 27.2231 31.839 27.1113C31.7526 26.9994 31.6449 26.9059 31.5221 26.836C31.3992 26.7662 31.2637 26.7216 31.1234 26.7047C30.9831 26.6878 30.8409 26.6989 30.705 26.7375L23.355 28.9125C23.0501 28.9973 22.7267 28.9883 22.4271 28.8866C22.1274 28.7849 21.8653 28.5953 21.675 28.3425C21.1322 27.6728 20.3542 27.2355 19.5 27.12L18.99 27.03C18.0823 26.8825 17.1531 27.1003 16.4055 27.6357C15.6579 28.1711 15.1525 28.9807 15 29.8875C15 29.8875 14.3925 33.0975 14.25 34.1775C13.83 38.25 14.58 46.1775 14.58 46.1775C14.5819 46.4574 14.694 46.7252 14.8919 46.9231C15.0898 47.121 15.3576 47.2331 15.6375 47.235H15.7725C16.0523 47.2331 16.3202 47.121 16.5181 46.9231C16.7159 46.7252 16.828 46.4574 16.83 46.1775V38.1C16.92 38.1 17.01 38.16 17.1075 38.175L17.6175 38.2575C18.1171 38.3401 18.6286 38.3145 19.1175 38.1825V46.1925C19.1194 46.4724 19.2315 46.7402 19.4294 46.9381C19.6273 47.136 19.8951 47.2481 20.175 47.25H20.31C20.5898 47.2481 20.8577 47.136 21.0556 46.9381C21.2534 46.7402 21.3655 46.4724 21.3675 46.1925C21.3675 46.1925 21.6 35.6925 21.6525 35.4075L22.1325 32.49C22.1821 32.2233 22.3032 31.975 22.4828 31.7716C22.6624 31.5682 22.8939 31.4173 23.1525 31.335L31.2975 28.9275C31.432 28.8887 31.5575 28.8238 31.6668 28.7364C31.7762 28.649 31.8673 28.541 31.9349 28.4184C32.0024 28.2958 32.0452 28.161 32.0606 28.0219C32.0761 27.8828 32.064 27.742 32.025 27.6075Z" fill="#E9841A"/>
</svg>
