<svg width="61" height="61" viewBox="0 0 61 61" fill="none" xmlns="http://www.w3.org/2000/svg">
<path d="M60 30.2732C60 46.5656 46.7924 59.7732 30.5 59.7732C14.2076 59.7732 1 46.5656 1 30.2732C1 13.9808 14.2076 0.773193 30.5 0.773193C46.7924 0.773193 60 13.9808 60 30.2732Z" stroke="#E9841A"/>
<path d="M25.5322 16.2732C25.2927 16.2732 25.0629 16.3687 24.8935 16.5386C24.7242 16.7086 24.629 16.9391 24.629 17.1794C24.629 17.4197 24.7242 17.6502 24.8935 17.8202C25.0629 17.9901 25.2927 18.0856 25.5322 18.0856H32.758C32.9976 18.0856 33.2273 17.9901 33.3967 17.8202C33.5661 17.6502 33.6612 17.4197 33.6612 17.1794C33.6612 16.9391 33.5661 16.7086 33.3967 16.5386C33.2273 16.3687 32.9976 16.2732 32.758 16.2732H25.5322ZM39.3624 19.7693C39.2791 19.6828 39.1794 19.6137 39.0692 19.5662C38.959 19.5188 38.8405 19.4938 38.7206 19.4927C38.6006 19.4917 38.4817 19.5146 38.3707 19.5602C38.2597 19.6057 38.1589 19.673 38.074 19.7581C37.9892 19.8432 37.9222 19.9444 37.8768 20.0557C37.8313 20.1671 37.8085 20.2864 37.8095 20.4067C37.8106 20.5271 37.8355 20.646 37.8828 20.7565C37.9302 20.8671 37.999 20.9671 38.0852 21.0507L40.6396 23.6134C40.7229 23.7 40.8226 23.769 40.9327 23.8165C41.0429 23.864 41.1615 23.889 41.2814 23.8901C41.4013 23.8911 41.5203 23.8682 41.6313 23.8226C41.7423 23.777 41.8431 23.7098 41.9279 23.6247C42.0127 23.5396 42.0798 23.4384 42.1252 23.327C42.1706 23.2157 42.1935 23.0963 42.1924 22.976C42.1914 22.8557 42.1665 22.7368 42.1191 22.6262C42.0718 22.5157 42.003 22.4157 41.9167 22.3321L39.3624 19.7711V19.7693ZM29.1451 23.5228C28.9056 23.5228 28.6758 23.6183 28.5064 23.7882C28.3371 23.9582 28.2419 24.1887 28.2419 24.429V31.6786C28.2419 31.919 28.3371 32.1495 28.5064 32.3194C28.6758 32.4894 28.9056 32.5849 29.1451 32.5849C29.3847 32.5849 29.6144 32.4894 29.7838 32.3194C29.9532 32.1495 30.0483 31.919 30.0483 31.6786V24.429C30.0483 24.1887 29.9532 23.9582 29.7838 23.7882C29.6144 23.6183 29.3847 23.5228 29.1451 23.5228ZM31.9216 44.9636C29.3653 45.5408 26.6934 45.3071 24.2753 44.2946C21.8572 43.2822 19.8122 41.5412 18.4231 39.3121C17.034 37.083 16.3694 34.4761 16.5212 31.8516C16.6729 29.2271 17.6335 26.7148 19.2702 24.6618C20.9069 22.6089 23.1388 21.1167 25.6574 20.3916C28.176 19.6665 30.8569 19.7443 33.3295 20.6142C35.8021 21.4842 37.9444 23.1032 39.46 25.2477C40.9757 27.3921 41.79 29.956 41.7903 32.5849V32.6592C41.1923 32.5583 40.5818 32.5583 39.9838 32.6592V32.5849C39.9833 30.3171 39.276 28.1062 37.9611 26.2616C36.6462 24.417 34.7894 23.031 32.6505 22.2976C30.5117 21.5642 28.1978 21.52 26.0326 22.1712C23.8675 22.8224 21.9595 24.1365 20.5755 25.9295C19.1916 27.7225 18.401 29.9048 18.3144 32.1709C18.2278 34.437 18.8495 36.6736 20.0925 38.5677C21.3355 40.4618 23.1376 41.9186 25.2467 42.7343C27.3558 43.55 29.6662 43.6837 31.8548 43.1167V44.3655C31.8548 44.5721 31.8783 44.7715 31.9216 44.9636ZM37.2741 38.0221C37.2741 37.0607 37.6548 36.1387 38.3323 35.4589C39.0099 34.7792 39.9288 34.3973 40.8871 34.3973C41.8453 34.3973 42.7642 34.7792 43.4418 35.4589C44.1193 36.1387 44.5 37.0607 44.5 38.0221V41.6469C44.5 42.6082 44.1193 43.5302 43.4418 44.21C42.7642 44.8898 41.8453 45.2717 40.8871 45.2717C39.9288 45.2717 39.0099 44.8898 38.3323 44.21C37.6548 43.5302 37.2741 42.6082 37.2741 41.6469V38.0221ZM40.8871 36.2097C40.4079 36.2097 39.9485 36.4006 39.6097 36.7405C39.2709 37.0804 39.0806 37.5414 39.0806 38.0221V41.6469C39.0806 42.1276 39.2709 42.5886 39.6097 42.9284C39.9485 43.2683 40.4079 43.4593 40.8871 43.4593C41.3662 43.4593 41.8256 43.2683 42.1644 42.9284C42.5032 42.5886 42.6935 42.1276 42.6935 41.6469V38.0221C42.6935 37.5414 42.5032 37.0804 42.1644 36.7405C41.8256 36.4006 41.3662 36.2097 40.8871 36.2097ZM35.4677 35.3035C35.4677 35.1489 35.4283 34.997 35.3533 34.862C35.2782 34.7271 35.17 34.6136 35.039 34.5324C34.9079 34.4512 34.7583 34.405 34.6045 34.3982C34.4506 34.3913 34.2975 34.4241 34.1598 34.4933L32.3534 35.3995C32.2464 35.4523 32.1509 35.5257 32.0723 35.6157C31.9938 35.7057 31.9338 35.8103 31.8957 35.9237C31.8577 36.037 31.8424 36.1568 31.8507 36.2761C31.8591 36.3954 31.8909 36.5119 31.9443 36.6188C31.9977 36.7257 32.0716 36.821 32.1619 36.8991C32.2522 36.9772 32.357 37.0366 32.4702 37.0739C32.5835 37.1111 32.703 37.1256 32.8218 37.1163C32.9407 37.107 33.0565 37.0742 33.1627 37.0198L33.6612 36.7715V44.3655C33.6612 44.6058 33.7564 44.8363 33.9258 45.0063C34.0952 45.1762 34.3249 45.2717 34.5645 45.2717C34.804 45.2717 35.0338 45.1762 35.2031 45.0063C35.3725 44.8363 35.4677 44.6058 35.4677 44.3655V35.3035Z" fill="#E9841A"/>
</svg>
