<svg width="60" height="60" viewBox="0 0 60 60" fill="none" xmlns="http://www.w3.org/2000/svg">
<path d="M59.5 30C59.5 46.2924 46.2924 59.5 30 59.5C13.7076 59.5 0.5 46.2924 0.5 30C0.5 13.7076 13.7076 0.5 30 0.5C46.2924 0.5 59.5 13.7076 59.5 30Z" stroke="#E9841A"/>
<path d="M29.1015 37.0011L24.9066 32.8062L10.3967 47.316L14.5916 51.511L29.1015 37.0011Z" fill="#E9841A"/>
<path d="M35.3437 29.6135L32.2943 26.5641C31.4947 25.7645 30.1983 25.7645 29.3987 26.5641L24.4295 31.5333C23.6299 32.3329 23.6299 33.6293 24.4295 34.4289L27.4789 37.4783C28.2785 38.2779 29.5749 38.2779 30.3745 37.4783L35.3437 32.5091C36.1433 31.7095 36.1433 30.4131 35.3437 29.6135Z" fill="#E9841A"/>
<path d="M24.9001 14.25C24.5293 14.3947 24.1922 14.6142 23.9101 14.895L22.2151 16.59C21.6788 17.132 21.3779 17.8637 21.3779 18.6262C21.3779 19.3888 21.6788 20.1205 22.2151 20.6625L41.2501 39.69C41.7921 40.2263 42.5238 40.5272 43.2863 40.5272C44.0488 40.5272 44.7806 40.2263 45.3226 39.69L47.0176 37.995C47.2962 37.7126 47.5132 37.3755 47.6551 37.005L24.9001 14.25Z" fill="#E9841A"/>
<path d="M49.7682 37.2329L24.6624 12.1271C24.5482 12.0129 24.079 12.2969 23.6144 12.7614L23.1615 13.2144C22.6969 13.6789 22.4129 14.1481 22.5272 14.2623L47.633 39.3682C47.7472 39.4824 48.2164 39.1984 48.681 38.7338L49.1339 38.2809C49.5985 37.8164 49.8824 37.3472 49.7682 37.2329Z" fill="#E9841A"/>
<path d="M30.6374 29.25L29.1899 30.705C29.0418 30.8331 28.9217 30.9903 28.8371 31.1669C28.7525 31.3435 28.7052 31.5356 28.6981 31.7313C28.6911 31.9269 28.7244 32.122 28.796 32.3042C28.8677 32.4864 28.9761 32.6519 29.1146 32.7903C29.253 32.9288 29.4185 33.0372 29.6007 33.1089C29.783 33.1805 29.978 33.2139 30.1737 33.2068C30.3693 33.1997 30.5614 33.1524 30.738 33.0678C30.9146 32.9832 31.0718 32.8631 31.1999 32.715L32.6099 31.305" stroke="#111111" stroke-miterlimit="10"/>
<path d="M42.18 15C41.5081 16.2274 40.7167 17.3855 39.8175 18.4575C38.9904 19.4468 38.0768 20.3604 37.0875 21.1875" stroke="#E9841A" stroke-miterlimit="10" stroke-linecap="round"/>
<path d="M38.445 11.4675C38.019 12.8009 37.4639 14.0895 36.7875 15.315C36.1639 16.4428 35.4437 17.5143 34.6349 18.5175" stroke="#E9841A" stroke-miterlimit="10" stroke-linecap="round"/>
<path d="M33.5249 6.98999C33.3743 8.38146 33.0905 9.75526 32.6774 11.0925C32.297 12.3225 31.8101 13.517 31.2224 14.6625" stroke="#E9841A" stroke-miterlimit="10" stroke-linecap="round"/>
<path d="M46.1025 18.915C43.7419 20.2108 41.6436 21.9352 39.915 24" stroke="#E9841A" stroke-miterlimit="10" stroke-linecap="round"/>
<path d="M49.6275 22.65C47.06 23.4716 44.6688 24.7664 42.5775 26.4675" stroke="#E9841A" stroke-miterlimit="10" stroke-linecap="round"/>
<path d="M54.1124 27.5775C52.7181 27.7214 51.3414 28.0028 50.0024 28.4175C48.7725 28.798 47.5779 29.2848 46.4324 29.8725" stroke="#E9841A" stroke-miterlimit="10" stroke-linecap="round"/>
</svg>
