<svg width="28" height="28" viewBox="0 0 28 28" fill="none" xmlns="http://www.w3.org/2000/svg">
<circle cx="14" cy="14" r="13.5" stroke="#E9841A"/>
<path d="M6 10.5133C6 9.89497 6.38538 9.65089 6.85968 9.61834L9.06818 9.63462C9.20158 9.63462 9.32016 9.73225 9.36462 9.8787C9.86858 11.6686 10.4911 12.7751 11.2322 14.0281C11.2767 14.1257 11.3508 14.1746 11.4249 14.1746C11.4842 14.1746 11.5435 14.142 11.5879 14.0607L11.6324 13.8817L11.6472 11.0666C11.6472 10.6598 11.4694 10.5947 11.0543 10.5296C10.8913 10.497 10.7875 10.3343 10.7875 10.1716C10.7875 10.1391 10.7875 10.1065 10.8024 10.074C11.0099 9.37426 11.6621 9.01627 12.581 9.01627L13.4111 9C14.0929 9 14.7154 9.32544 14.7154 10.2855V13.9793C14.7747 14.0281 14.834 14.0607 14.9081 14.0607C15.0267 14.0607 15.1749 13.9793 15.2935 13.7678C16.0642 12.5799 16.9387 11.1642 17.0573 10.4157C17.0573 10.3831 17.0721 10.3669 17.087 10.3343C17.25 9.97633 17.665 9.73225 17.8429 9.66716C17.8725 9.65089 17.917 9.63462 17.9763 9.63462H20.2737L20.4219 9.65089C20.6443 9.65089 20.8073 9.81361 20.8814 9.96006C21.0148 10.1879 20.9852 10.432 21 10.5296V10.6435C20.7777 12.1243 19.2362 13.784 18.584 14.858C18.4951 14.9882 18.4506 15.1021 18.4506 15.216C18.4506 15.3136 18.4951 15.4112 18.5692 15.5089L20.7332 18.503C20.8518 18.682 20.9111 18.8935 20.9111 19.0725C20.9111 19.6095 20.4516 19.9186 20.0069 19.9675L19.7549 19.9837H17.502C17.4575 19.9837 17.4279 20 17.3834 20C17.1314 20 16.9239 19.8535 16.7757 19.6908C16.3014 19.0562 15.8419 18.4053 15.3824 17.7707C15.2935 17.6405 15.2638 17.6243 15.1749 17.5592C15.0711 18.0311 14.9822 18.5192 14.8785 19.0074L14.834 19.284C14.7599 19.5769 14.5672 19.8861 14.2115 19.9675L14.004 19.9837H12.5514C9.98715 19.9837 7.68972 15.9808 6.07411 10.9852C6.02964 10.855 6 10.676 6 10.5133ZM14.9081 14.7278C14.5227 14.7278 14.0929 14.4837 14.0929 14.0281V10.2855C14.0929 9.84615 13.915 9.68343 13.4259 9.68343L12.581 9.71598C12.1067 9.71598 11.8399 9.79734 11.6176 9.96006C11.9585 10.1391 12.2698 10.3831 12.2698 11.0666V13.9305C12.2253 14.5 11.7955 14.8743 11.3804 14.8743C11.0988 14.8743 10.8468 14.6953 10.6986 14.4024C10.0316 13.2959 9.46838 12.2544 8.97925 10.7574L8.84585 10.3343L6.87451 10.318C6.60771 10.318 6.63735 10.3343 6.63735 10.4808C6.63735 10.5784 6.65217 10.7086 6.667 10.7899L6.97826 11.7012C8.59387 16.2899 10.6245 19.3003 12.5514 19.3003H14.0336C14.2411 19.3003 14.2263 19.0237 14.2708 18.8609L14.5524 17.429C14.6117 17.2825 14.6561 17.1524 14.7599 17.0385C14.8785 16.9083 15.0119 16.8595 15.1453 16.8595C15.4269 16.8595 15.6937 17.1035 15.8715 17.3314L17.1314 19.0888C17.2352 19.2678 17.3241 19.3003 17.3834 19.3003H19.8291C20.0662 19.3003 20.2737 19.2189 20.2737 19.0562C20.2737 19.0074 20.2589 18.9423 20.2292 18.8935L18.08 15.9482C17.9022 15.7041 17.8281 15.4601 17.8281 15.216C17.8281 14.9556 17.917 14.6953 18.0652 14.4675C18.6877 13.4423 20.0217 11.9778 20.333 10.7737L20.3775 10.5621C20.3626 10.4808 20.3626 10.4157 20.3478 10.3343H18.0208C17.8725 10.3994 17.754 10.497 17.665 10.6272L17.5761 10.9364C17.2352 11.9778 16.3014 13.4098 15.6344 14.4024C15.4121 14.6302 15.1601 14.7278 14.9081 14.7278Z" fill="#E9841A"/>
</svg>
